<?xml version="1.0" standalone="no"?>
<!DOCTYPE svg PUBLIC "-//W3C//DTD SVG 20010904//EN"
 "http://www.w3.org/TR/2001/REC-SVG-20010904/DTD/svg10.dtd">
<svg version="1.0" xmlns="http://www.w3.org/2000/svg"
 width="2000.000000pt" height="2000.000000pt" viewBox="0 0 2000.000000 2000.000000"
 preserveAspectRatio="xMidYMid meet">

<g transform="translate(0.000000,2000.000000) scale(0.100000,-0.100000)"
fill="#000000" stroke="none">
<path d="M12585 16260 c-166 -38 -341 -112 -488 -207 -40 -26 -113 -61 -164
-79 -133 -46 -293 -125 -404 -199 -338 -225 -505 -522 -566 -1004 -14 -115
-16 -200 -12 -546 7 -692 -4 -1350 -32 -1815 -33 -567 -123 -1009 -270 -1321
l-41 -86 -251 -6 c-139 -4 -511 -12 -827 -18 l-575 -12 -735 211 c-716 205
-874 249 -1070 292 -126 28 -381 80 -391 80 -5 0 -13 -19 -20 -42 -17 -65 -37
-99 -84 -143 l-43 -41 154 -33 154 -34 111 22 c61 13 115 19 120 14 4 -4 9
-28 11 -53 3 -43 4 -45 43 -53 194 -45 847 -233 1274 -369 238 -75 309 -102
441 -168 358 -180 657 -265 940 -270 47 0 69 -4 60 -9 -8 -5 -107 -43 -220
-85 -433 -163 -605 -279 -699 -470 -75 -153 -84 -293 -45 -651 l6 -50 -72 -44
c-52 -31 -70 -48 -67 -60 3 -9 188 -398 411 -864 223 -467 406 -852 406 -856
0 -4 -47 -31 -104 -61 -57 -30 -102 -58 -100 -62 11 -18 611 -198 659 -198 6
0 18 13 27 29 30 54 71 57 270 15 95 -19 198 -39 228 -44 30 -5 109 -20 175
-34 66 -13 121 -23 123 -21 2 2 -2 13 -8 25 -18 34 -15 99 7 129 61 81 148 86
303 18 210 -92 341 -88 716 19 245 70 285 77 429 78 106 0 144 -4 208 -22 211
-60 380 -181 488 -347 23 -36 44 -65 46 -65 4 0 2356 -627 2386 -636 16 -5 17
10 18 208 1 117 4 281 8 363 l6 150 40 3 c22 2 45 9 50 16 6 8 156 31 415 64
223 29 630 81 905 117 275 36 513 63 529 60 35 -6 148 4 166 15 30 19 -384
904 -695 1485 -386 721 -815 1406 -961 1535 -43 37 -144 89 -246 125 -43 15
-78 28 -78 29 0 0 51 1 112 1 62 0 132 6 155 13 58 17 122 68 158 127 25 40
31 61 33 124 8 166 -90 335 -386 670 -216 244 -282 348 -323 511 -32 125 -23
328 25 585 49 270 60 380 60 625 0 385 -52 696 -184 1090 -131 393 -337 792
-593 1148 -235 328 -679 725 -970 867 -383 187 -874 279 -1152 215z m-582
-1179 c181 -357 467 -653 798 -826 59 -30 109 -55 111 -55 6 0 -5 67 -21 129
-24 94 -23 94 56 -10 198 -263 524 -524 874 -700 94 -47 99 -51 100 -82 3 -84
-1 -442 -6 -522 -8 -118 -43 -544 -60 -720 -15 -155 -25 -281 -30 -370 -3 -55
-8 -122 -10 -148 -9 -96 -6 -594 5 -692 34 -322 119 -519 280 -647 l50 -40 0
-196 c0 -210 -10 -330 -35 -426 -92 -353 -380 -629 -740 -712 -106 -25 -330
-25 -428 -1 -397 98 -692 412 -751 800 -12 81 -26 738 -26 1283 l0 100 -82 24
c-180 52 -368 169 -509 317 -237 249 -361 574 -409 1068 -6 61 -12 130 -15
155 -20 193 -28 1305 -11 1530 l8 105 84 68 c345 284 551 571 604 842 6 33 13
67 16 75 3 8 24 -42 48 -111 23 -69 68 -176 99 -238z m-303 -4810 c0 -23 -302
-391 -321 -391 -16 0 5 32 113 168 92 114 195 232 204 232 2 0 4 -4 4 -9z
m4185 -471 c87 -79 123 -120 104 -120 -23 0 -219 179 -219 200 0 18 31 -3 115
-80z m-5195 -184 c138 -112 292 -268 277 -282 -2 -3 -47 34 -98 82 -52 48
-151 136 -221 196 -71 60 -128 114 -128 119 0 13 74 -38 170 -115z m4015 24
c-17 -27 -302 -187 -313 -175 -4 3 -2 9 4 13 58 41 144 93 209 129 78 41 112
53 100 33z m1075 -401 c-35 -139 -100 -339 -110 -339 -6 0 -10 3 -10 6 0 20
58 229 93 334 45 136 61 136 27 -1z m-3994 36 c-4 -14 -22 -116 -40 -226 -19
-110 -37 -203 -40 -206 -12 -12 -6 122 9 217 18 112 54 240 68 240 5 0 6 -11
3 -25z m3204 -94 c-11 -100 -36 -217 -60 -276 -22 -53 -22 -9 -1 97 11 57 25
132 31 168 6 36 13 80 16 99 4 22 9 30 15 24 7 -7 7 -45 -1 -112z m-4690 -36
c0 -3 -39 -31 -87 -62 -104 -66 -232 -163 -326 -246 -37 -33 -70 -57 -73 -54
-9 9 91 111 176 180 84 67 146 109 234 156 57 30 76 37 76 26z m3745 -124
c-101 -98 -173 -156 -183 -147 -8 9 114 129 197 194 29 24 56 40 60 37 3 -4
-30 -41 -74 -84z m-4656 -51 c13 -102 14 -360 2 -379 -11 -17 -18 67 -26 309
-7 189 5 223 24 70z m2901 -152 c110 -162 152 -238 133 -238 -17 0 -223 311
-223 336 0 21 34 -16 90 -98z m-1170 18 c0 -12 -409 -106 -461 -106 -71 0 78
44 316 93 69 15 145 21 145 13z m5267 -144 c-9 -59 -19 -132 -22 -162 -13
-118 -17 -135 -27 -115 -18 32 13 306 44 383 19 48 21 4 5 -106z m-2055 61
c60 -78 148 -210 148 -223 0 -20 -16 -8 -53 40 -54 70 -157 222 -157 232 0 20
20 4 62 -49z m-1223 -88 c75 -79 94 -105 72 -105 -12 0 -171 167 -171 180 0
22 21 7 99 -75z m527 -277 c69 -94 166 -299 149 -316 -7 -8 -8 -7 -70 117 -31
63 -75 142 -96 176 -36 57 -47 85 -34 85 3 0 26 -28 51 -62z m-2427 -50 c101
-137 203 -296 199 -310 -7 -21 -278 360 -278 391 0 21 11 10 79 -81z m4481
-84 c126 -79 210 -141 210 -155 0 -6 -21 1 -47 16 -73 42 -270 174 -283 190
-27 32 17 13 120 -51z m-5893 -25 c129 -103 268 -232 254 -237 -6 -2 -53 30
-104 71 -117 95 -266 236 -250 237 7 0 52 -32 100 -71z m2787 -78 c-108 -104
-189 -169 -199 -159 -8 8 181 187 265 251 72 55 41 11 -66 -92z m2365 -63
c-52 -102 -179 -271 -193 -257 -4 3 42 79 101 167 60 89 109 155 111 148 2 -8
-7 -34 -19 -58z m-1793 -35 c-8 -24 -100 -123 -114 -123 -22 0 -12 17 49 84
60 66 77 75 65 39z m3163 -76 c28 -46 81 -180 102 -262 22 -81 22 -85 10 -85
-5 0 -15 17 -22 38 -6 20 -36 101 -65 180 -30 79 -54 147 -54 153 0 16 8 10
29 -24z m-4121 -229 c42 -104 64 -175 60 -195 -6 -27 -40 44 -77 160 -35 109
-34 107 -22 107 5 0 23 -33 39 -72z m-1408 -50 c43 -87 52 -120 24 -97 -20 16
-94 163 -94 185 0 31 28 -5 70 -88z m6286 -85 c-36 -48 -87 -125 -112 -170
-26 -46 -50 -83 -55 -83 -5 0 -9 2 -9 5 0 16 63 142 96 191 47 70 137 170 142
156 2 -6 -26 -50 -62 -99z m-2930 -117 c-78 -154 -110 -205 -120 -195 -7 7
118 264 160 331 17 27 29 38 32 29 2 -7 -30 -82 -72 -165z m1716 -118 c99 -82
234 -216 226 -224 -10 -9 -125 86 -228 190 -95 96 -94 113 2 34z m-2732 7 c54
-40 230 -220 230 -236 0 -19 -14 -7 -161 134 -139 133 -167 174 -69 102z
m-1425 -25 c3 -5 0 -10 -7 -10 -34 0 -413 -20 -490 -26 -98 -7 -124 9 -35 21
170 24 520 34 532 15z m3116 -351 c30 -152 47 -305 31 -279 -13 20 -37 131
-62 281 -23 144 -25 168 -9 152 6 -6 24 -75 40 -154z m-807 -248 c110 -68 233
-151 246 -166 20 -24 -7 -19 -59 12 -58 33 -281 183 -281 189 0 13 38 -1 94
-35z"/>
<path d="M11572 14468 c-102 -11 -210 -85 -200 -136 4 -19 -15 -18 263 -7 198
8 205 9 205 38 0 67 -137 120 -268 105z"/>
<path d="M12890 14070 c-66 -11 -112 -33 -159 -75 -36 -33 -53 -65 -35 -65 4
0 48 14 98 31 112 39 207 42 306 10 65 -21 100 -26 100 -15 0 34 -78 87 -162
110 -58 15 -80 16 -148 4z"/>
<path d="M11490 14051 c-50 -16 -108 -51 -134 -81 -48 -58 -33 -62 79 -20 89
34 201 38 298 11 43 -11 84 -21 92 -21 47 0 -27 72 -103 100 -55 21 -180 26
-232 11z"/>
<path d="M12237 14033 c-31 -52 -187 -468 -302 -803 -109 -318 -99 -341 141
-341 75 0 138 2 141 5 7 6 -91 24 -172 31 -97 8 -125 21 -125 54 0 15 40 140
89 278 144 404 261 783 241 783 -5 0 -11 -3 -13 -7z"/>
<path d="M11484 13794 c-131 -45 -92 -234 49 -234 99 0 157 93 112 180 -27 52
-98 76 -161 54z"/>
<path d="M12812 13789 c-21 -11 -44 -31 -51 -45 -16 -36 -14 -101 5 -130 49
-74 179 -71 219 6 58 112 -58 225 -173 169z"/>
<path d="M12250 12538 c-51 -35 -80 -83 -79 -132 l0 -41 13 48 c14 51 44 90
88 113 88 46 235 -24 253 -119 17 -89 -38 -180 -120 -202 -40 -11 -44 -14 -20
-14 17 0 49 8 73 19 79 36 116 164 72 250 -31 61 -86 92 -173 97 -64 4 -76 2
-107 -19z"/>
<path d="M9981 12494 c0 -11 3 -14 6 -6 3 7 2 16 -1 19 -3 4 -6 -2 -5 -13z"/>
<path d="M9611 12454 c0 -11 3 -14 6 -6 3 7 2 16 -1 19 -3 4 -6 -2 -5 -13z"/>
<path d="M9973 12405 c0 -33 2 -45 4 -27 2 18 2 45 0 60 -2 15 -4 0 -4 -33z"/>
<path d="M9602 12380 c0 -14 2 -19 5 -12 2 6 2 18 0 25 -3 6 -5 1 -5 -13z"/>
<path d="M9612 12310 c0 -14 2 -19 5 -12 2 6 2 18 0 25 -3 6 -5 1 -5 -13z"/>
<path d="M9981 12314 c0 -11 3 -14 6 -6 3 7 2 16 -1 19 -3 4 -6 -2 -5 -13z"/>
<path d="M9996 12270 c14 -52 40 -88 141 -191 57 -59 110 -123 118 -143 21
-49 19 -135 -4 -188 -22 -50 -73 -121 -153 -210 -56 -63 -128 -172 -128 -192
0 -6 14 14 31 45 17 31 58 87 91 125 152 171 188 234 188 329 0 89 -25 132
-138 244 -64 64 -109 117 -126 152 -15 30 -24 43 -20 29z"/>
<path d="M9630 12247 c0 -28 56 -105 137 -186 111 -111 137 -154 137 -232 1
-78 -43 -160 -151 -285 -48 -56 -97 -117 -107 -135 -24 -43 -15 -34 27 23 17
25 59 75 92 112 77 86 131 174 146 240 10 44 9 62 -5 111 -15 51 -29 70 -121
164 -57 58 -115 126 -129 151 -14 25 -26 41 -26 37z"/>
<path d="M5428 11705 c-55 -31 -78 -128 -44 -180 32 -49 53 -55 215 -60 161
-4 191 -7 397 -31 l131 -16 142 88 c131 81 160 104 128 104 -6 0 -102 13 -212
29 -110 16 -222 32 -250 35 -27 3 -106 13 -175 21 -204 25 -301 28 -332 10z"/>
<path d="M9961 11314 c0 -11 3 -14 6 -6 3 7 2 16 -1 19 -3 4 -6 -2 -5 -13z"/>
<path d="M9591 11284 c0 -11 3 -14 6 -6 3 7 2 16 -1 19 -3 4 -6 -2 -5 -13z"/>
<path d="M2241 11021 c-26 -26 -70 -167 -83 -266 -15 -114 -17 -116 -43 -52
-35 87 -93 157 -174 209 -25 15 -48 28 -52 28 -13 0 -29 -72 -29 -131 0 -62
22 -147 51 -196 10 -18 17 -33 15 -33 -2 0 -38 16 -80 36 -103 49 -182 56
-246 22 -66 -36 -93 -80 -87 -143 6 -70 47 -104 180 -145 137 -44 212 -87 283
-163 73 -78 109 -152 163 -332 51 -170 90 -251 150 -315 46 -49 137 -100 179
-100 12 0 22 -1 22 -3 0 -2 20 -104 45 -228 52 -256 113 -590 150 -824 33
-204 85 -562 85 -584 0 -9 -16 19 -34 62 -95 218 -279 402 -490 492 -36 15
-69 25 -73 22 -12 -13 37 -182 77 -265 103 -215 239 -355 459 -471 101 -54 89
-18 126 -371 65 -631 118 -1480 114 -1835 l-1 -90 -14 120 c-38 334 -120 727
-223 1067 -50 165 -148 435 -200 553 -21 48 -25 68 -20 100 16 90 -15 167
-123 315 -109 148 -121 176 -127 305 -6 109 -6 110 -31 110 -32 0 -49 -45 -49
-137 -1 -38 -4 -68 -8 -68 -5 1 -17 15 -28 32 -24 37 -80 83 -114 93 -23 7
-24 6 -19 -47 2 -30 14 -74 27 -98 16 -32 18 -41 7 -37 -57 22 -99 27 -131 17
-39 -13 -75 -53 -75 -82 0 -29 43 -66 86 -73 84 -14 143 -36 188 -70 40 -31
55 -55 106 -159 61 -127 101 -179 157 -202 50 -21 79 -17 101 13 l20 27 17
-39 c169 -404 327 -982 394 -1440 53 -362 56 -416 55 -885 -1 -431 -8 -652
-39 -1115 -16 -233 -60 -732 -75 -850 -5 -38 -9 -83 -8 -100 2 -74 65 517 93
875 65 837 73 1934 20 2770 -49 762 -149 1605 -271 2273 l-25 138 56 62 c107
118 175 297 175 461 0 71 -14 174 -26 185 -9 9 -80 -77 -125 -151 -53 -87 -86
-185 -98 -287 -8 -74 -21 -121 -21 -77 0 10 -22 122 -49 250 l-50 234 53 54
c64 66 95 139 102 247 11 144 -24 247 -184 532 -157 282 -192 429 -142 604 25
88 25 116 -1 149 -24 31 -61 34 -88 7z"/>
<path d="M4024 10155 c-25 -25 -25 -26 -18 -148 5 -85 3 -141 -6 -178 -22
-101 -94 -226 -235 -414 -203 -269 -253 -382 -242 -546 5 -81 42 -182 77 -214
16 -15 14 -27 -50 -233 -37 -119 -87 -289 -111 -376 l-44 -160 -12 120 c-15
146 -49 270 -108 391 -47 96 -137 224 -198 282 l-36 34 -5 -24 c-34 -146 -42
-273 -27 -399 30 -240 116 -445 260 -615 28 -32 51 -68 51 -80 0 -11 -18 -101
-39 -200 -244 -1113 -325 -2355 -230 -3505 11 -135 24 -270 29 -300 l9 -55 -4
65 c-3 36 -11 153 -20 260 -30 395 -38 696 -31 1130 4 234 9 439 12 455 5 24
16 36 57 58 119 62 224 171 289 300 33 66 68 192 68 244 l0 34 -58 -31 c-141
-75 -261 -222 -323 -395 l-18 -50 0 50 c-1 90 42 547 72 759 l12 80 75 3 c367
13 705 219 895 547 l28 48 -79 -6 c-355 -31 -696 -235 -873 -523 -18 -29 -35
-53 -38 -53 -8 0 4 89 48 355 92 552 219 1090 386 1635 l38 125 38 -3 c50 -5
124 21 183 63 70 50 136 143 195 275 92 205 138 272 238 348 71 53 138 78 275
103 160 29 216 68 216 149 0 56 -53 127 -113 149 -48 18 -134 13 -213 -14 -41
-14 -77 -25 -80 -25 -3 0 6 15 20 33 61 80 97 208 82 291 l-7 35 -39 -14 c-79
-28 -180 -116 -231 -200 l-24 -40 -6 130 c-10 197 -34 275 -85 275 -14 0 -36
-11 -50 -25z"/>
<path d="M10755 6378 c21 -88 375 -1835 375 -1849 0 -9 -13 -44 -30 -77 -86
-174 -80 -415 14 -587 32 -58 33 -63 25 -130 -12 -104 -19 -148 -21 -150 -2
-1 -162 -5 -355 -8 l-353 -5 0 224 0 224 -2260 0 -2260 0 0 -27 c-1 -16 -2
-116 -3 -223 l-2 -195 -627 -3 -628 -2 0 -108 0 -108 382 -58 c409 -62 491
-82 593 -144 118 -72 225 -207 266 -337 8 -27 14 -158 19 -410 6 -364 7 -371
33 -458 73 -239 214 -424 427 -562 58 -38 126 -87 153 -111 46 -41 120 -73
207 -89 70 -13 70 -13 70 -66 l0 -49 -1727 -2 c-951 -2 -2088 -2 -2528 -2
-708 1 -749 1 -355 -6 554 -9 15060 -10 15670 -1 289 5 -263 9 -1580 12
l-2025 4 1487 2 1487 3 -445 625 c-244 343 -444 627 -444 630 0 2 57 -24 128
-59 198 -99 259 -119 372 -120 88 -1 99 1 149 29 68 38 115 92 157 182 68 143
97 362 75 554 -30 268 -166 537 -339 675 -121 95 -259 143 -431 148 -236 8
-462 -68 -745 -248 -112 -72 -115 -73 -132 -55 -9 10 -23 19 -30 19 -11 0 -14
95 -16 526 l-3 525 -360 170 c-198 94 -416 197 -485 230 -69 34 -267 127 -440
209 -173 82 -551 260 -840 396 -936 441 -824 393 -1105 467 -137 37 -432 118
-655 181 -469 132 -846 236 -860 236 -6 0 -8 -10 -5 -22z m589 -679 c19 -63
49 -147 66 -188 33 -80 36 -96 19 -85 -19 11 -86 163 -108 244 -19 66 -29 161
-16 149 2 -3 20 -57 39 -120z m820 -6 c-12 -48 -86 -257 -102 -288 -49 -92 7
123 72 278 19 43 40 50 30 10z m747 -182 c-49 -68 -245 -218 -273 -209 -7 3
15 26 52 54 35 27 99 79 143 117 84 72 111 85 78 38z m452 -373 c81 -31 198
-103 205 -126 2 -8 -38 9 -89 36 -52 27 -131 64 -176 83 -84 33 -110 56 -50
44 17 -4 67 -21 110 -37z m-540 -170 c97 -39 177 -75 177 -80 0 -10 -32 -3
-130 29 -95 31 -260 110 -260 124 0 6 8 8 18 5 9 -4 97 -39 195 -78z m-1107
35 c36 -56 154 -293 154 -310 0 -15 -4 -14 -20 7 -21 27 -141 256 -159 303
-13 35 1 35 25 0z m2242 -166 c-47 -73 -121 -161 -160 -188 -31 -22 -32 -22
-18 -3 8 12 53 68 99 124 46 57 88 112 95 122 6 10 12 14 14 8 2 -6 -11 -34
-30 -63z m910 -207 c41 -11 104 -36 141 -55 65 -32 136 -83 128 -91 -2 -3 -55
20 -118 50 -63 30 -151 66 -196 79 -46 13 -86 26 -89 30 -14 14 64 6 134 -13z
m-558 -109 c37 -30 76 -88 67 -98 -4 -3 -26 14 -49 38 -24 24 -60 53 -81 64
-20 11 -37 24 -37 29 0 16 65 -5 100 -33z m947 -440 c-6 -115 -37 -266 -58
-286 -9 -7 -10 1 -5 30 15 99 36 256 41 318 4 44 10 65 17 61 7 -5 9 -45 5
-123z m-3762 -9 c103 -65 225 -154 225 -164 0 -17 -20 -6 -156 83 -156 103
-214 146 -214 161 0 10 25 -4 145 -80z m995 23 c0 -2 -21 -16 -47 -31 -89 -50
-148 -88 -221 -142 -75 -55 -105 -62 -61 -16 75 81 329 227 329 189z m1510
-29 c0 -3 -48 -34 -107 -70 -60 -35 -132 -83 -162 -105 -30 -23 -57 -39 -60
-36 -8 9 61 75 122 117 85 58 207 113 207 94z m-900 -143 c65 -98 81 -133 63
-133 -15 1 -153 211 -153 232 0 26 27 -4 90 -99z m1708 85 c-8 -24 -272 -158
-285 -144 -10 10 23 31 152 96 125 63 139 68 133 48z m1747 -712 c124 -57 296
-326 296 -462 0 -126 -92 -203 -251 -210 -93 -4 -183 15 -315 68 -125 49 -203
93 -305 169 -67 51 -96 83 -181 201 -55 77 -99 142 -97 143 2 2 87 18 188 35
102 17 244 42 315 55 178 31 285 32 350 1z m-5479 -88 c-3 -24 -17 -141 -31
-260 -14 -119 -41 -349 -60 -510 -19 -161 -38 -313 -41 -338 -6 -51 -22 -187
-29 -240 -3 -19 -12 -98 -20 -175 -9 -77 -18 -151 -20 -165 -3 -14 -14 -108
-25 -210 -11 -102 -23 -197 -26 -213 l-6 -27 -669 0 -669 0 0 29 c0 27 3 29
73 46 96 23 318 133 452 224 124 85 263 260 325 408 68 163 72 192 80 598 6
310 10 379 25 425 33 104 75 172 154 250 108 106 211 157 379 185 120 20 115
22 108 -27z"/>
<path d="M8144 5475 c3 -54 15 -99 50 -192 77 -204 67 -260 -89 -488 -95 -138
-135 -226 -135 -294 0 -54 30 -131 66 -166 19 -19 38 -35 43 -35 5 0 -8 17
-29 38 -66 65 -77 172 -31 279 13 29 56 98 97 155 106 148 138 215 142 304 4
80 -5 119 -64 259 -20 50 -41 117 -45 150 l-8 60 3 -70z"/>
<path d="M8565 5484 c2 -28 22 -96 46 -155 39 -94 43 -113 43 -189 1 -104 -20
-155 -125 -302 -38 -54 -81 -120 -95 -146 -60 -116 -55 -238 13 -313 19 -21
39 -39 43 -39 4 0 -7 15 -24 34 -60 62 -72 170 -32 267 12 31 60 109 105 172
117 166 136 210 136 322 -1 85 -4 97 -49 204 -26 63 -52 132 -57 155 -8 41 -8
41 -4 -10z"/>
<path d="M7724 5445 c3 -53 14 -97 45 -179 52 -135 62 -186 50 -251 -13 -69
-46 -133 -130 -250 -103 -143 -132 -210 -132 -299 0 -90 32 -159 88 -188 14
-8 12 -4 -7 14 -47 45 -63 86 -63 168 1 91 22 137 143 307 150 212 159 279 65
510 -25 64 -50 143 -54 177 l-8 61 3 -70z"/>
<path d="M3093 3485 c0 -22 2 -30 4 -17 2 12 2 30 0 40 -3 9 -5 -1 -4 -23z"/>
<path d="M2812 2625 c0 -16 2 -22 5 -12 2 9 2 23 0 30 -3 6 -5 -1 -5 -18z"/>
<path d="M2802 2540 c0 -14 2 -19 5 -12 2 6 2 18 0 25 -3 6 -5 1 -5 -13z"/>
</g>
</svg>
